# xmcd
# 
# Track frame offsets:
#     150
#     9073
#     20098
#     39893
#     59535
#     76657
#     93857
#     110806
#     133775
#     147872
#     163286
#     176184
#     189006
#     204091
# 
# Disc length: 2974
# 
# Revision: 3
# Processed by: cddbd v1.5.2PL0 Copyright (c) Steve Scherf et al.
# Submitted via: BonkEnc v1.0.6
# 
DISCID=ae0b9c0e
DTITLE=Roomful Of Blues - Standing Room Only
DYEAR=2005
DGENRE=Blues
TTITLE0=She Put A Spell On Me
TTITLE1=I Can't Stand You No More
TTITLE2=Boomerang
TTITLE3=The Love You Lost On The Way
TTITLE4=Just Keep On Rockin'
TTITLE5=Two For The Price Of Ten
TTITLE6=Straight Jacquet
TTITLE7=Sufferin' With The Blues
TTITLE8=Jona Lee
TTITLE9=Love Grown Cold
TTITLE10=My Mind Is Troubled
TTITLE11=Flip Flap Jack
TTITLE12=Up Jumped The Devil
TTITLE13=Nobody Knows
EXTD=advance YEAR: 2005
EXTT0=
EXTT1=
EXTT2=
EXTT3=
EXTT4=
EXTT5=
EXTT6=
EXTT7=
EXTT8=
EXTT9=
EXTT10=
EXTT11=
EXTT12=
EXTT13=
PLAYORDER=
